<?xml version="1.0" encoding="UTF-8" standalone="no"?>
<!-- Generator: Adobe Illustrator 16.0.0, SVG Export Plug-In . SVG Version: 6.00 Build 0)  -->

<svg
   xmlns:osb="http://www.openswatchbook.org/uri/2009/osb"
   xmlns:dc="http://purl.org/dc/elements/1.1/"
   xmlns:cc="http://creativecommons.org/ns#"
   xmlns:rdf="http://www.w3.org/1999/02/22-rdf-syntax-ns#"
   xmlns:svg="http://www.w3.org/2000/svg"
   xmlns="http://www.w3.org/2000/svg"
   xmlns:xlink="http://www.w3.org/1999/xlink"
   xmlns:sodipodi="http://sodipodi.sourceforge.net/DTD/sodipodi-0.dtd"
   xmlns:inkscape="http://www.inkscape.org/namespaces/inkscape"
   version="1.1"
   id="Layer_1"
   x="0px"
   y="0px"
   width="497.015px"
   height="178.694px"
   viewBox="0 0 497.015 178.694"
   enable-background="new 0 0 497.015 178.694"
   xml:space="preserve"
   sodipodi:docname="Pycon Logo_FINAL_PYCON Hexagon Logo.svg"
   inkscape:version="0.92.2 5c3e80d, 2017-08-06"
   inkscape:export-filename="/Users/ewdurbin/ernestd/src/pycon/pycon/static/img/2018/SVG/Pycon Logo_FINAL_PYCON Hexagon Logo.png"
   inkscape:export-xdpi="2808.6899"
   inkscape:export-ydpi="2808.6899"><metadata
     id="metadata443"><rdf:RDF><cc:Work
         rdf:about=""><dc:format>image/svg+xml</dc:format><dc:type
           rdf:resource="http://purl.org/dc/dcmitype/StillImage" /><dc:title></dc:title></cc:Work></rdf:RDF></metadata><defs
     id="defs441"><linearGradient
       id="linearGradient3099"
       osb:paint="solid"><stop
         style="stop-color:#78aca8;stop-opacity:1;"
         offset="0"
         id="stop3097" /></linearGradient><defs
       id="defs63"><circle
         id="SVGID_6_"
         cx="89.452003"
         cy="87.961998"
         r="78.072998" /></defs><clipPath
       clipPathUnits="userSpaceOnUse"
       id="clipPath3960"><path
         transform="matrix(1.0771968,-0.6219199,0.6219199,1.0771968,-242.19707,163.81979)"
         d="m 336.53278,85.93512 -34.30531,59.41855 -68.61064,0 -34.30531,-59.41855 34.30531,-59.418552 68.61064,0 z"
         inkscape:randomized="0"
         inkscape:rounded="0"
         inkscape:flatsided="true"
         sodipodi:arg2="0.52359878"
         sodipodi:arg1="0"
         sodipodi:r2="59.418552"
         sodipodi:r1="68.610634"
         sodipodi:cy="85.93512"
         sodipodi:cx="267.92215"
         sodipodi:sides="6"
         id="path3962"
         style="opacity:1;fill:#0e1616;fill-opacity:0;stroke:#000000;stroke-width:3.85901809;stroke-miterlimit:10;stroke-dasharray:none;stroke-opacity:1"
         sodipodi:type="star" /></clipPath><clipPath
       clipPathUnits="userSpaceOnUse"
       id="clipPath3964"><path
         transform="matrix(1.0771968,-0.6219199,0.6219199,1.0771968,-423.40046,162.09404)"
         d="m 336.53278,85.93512 -34.30531,59.41855 -68.61064,0 -34.30531,-59.41855 34.30531,-59.418552 68.61064,0 z"
         inkscape:randomized="0"
         inkscape:rounded="0"
         inkscape:flatsided="true"
         sodipodi:arg2="0.52359878"
         sodipodi:arg1="0"
         sodipodi:r2="59.418552"
         sodipodi:r1="68.610634"
         sodipodi:cy="85.93512"
         sodipodi:cx="267.92215"
         sodipodi:sides="6"
         id="path3966"
         style="opacity:1;fill:#0e1616;fill-opacity:0;stroke:#000000;stroke-width:3.85901809;stroke-miterlimit:10;stroke-dasharray:none;stroke-opacity:1"
         sodipodi:type="star" /></clipPath></defs><sodipodi:namedview
     pagecolor="#ffffff"
     bordercolor="#666666"
     borderopacity="1"
     objecttolerance="10"
     gridtolerance="10"
     guidetolerance="10"
     inkscape:pageopacity="0"
     inkscape:pageshadow="2"
     inkscape:window-width="2133"
     inkscape:window-height="982"
     id="namedview439"
     showgrid="false"
     inkscape:zoom="4.7163934"
     inkscape:cx="61.157752"
     inkscape:cy="89.272954"
     inkscape:window-x="0"
     inkscape:window-y="0"
     inkscape:window-maximized="0"
     inkscape:current-layer="g3950" /><g
     id="g436"><g
       id="g432"
       transform="translate(181.20339,1.7257466)"
       clip-path="url(#clipPath3964)" /><g
       id="g3950"
       clip-path="url(#clipPath3960)"><g
         id="g1254"><circle
           style="opacity:0.5;fill:#ffeacb;stroke-width:1.28085256"
           id="circle26"
           cy="95.294838"
           cx="100"
           r="100" /><g
           style="opacity:0.5"
           id="g60"
           transform="matrix(1.2808526,0,0,1.2808526,-16.521597,-22.94466)"><defs
             id="defs29"><circle
               style="opacity:0.5"
               r="78.072998"
               cy="87.961998"
               cx="89.452003"
               id="SVGID_4_" /></defs><clipPath
             id="SVGID_2_"><use
               height="100%"
               width="100%"
               y="0"
               x="0"
               style="overflow:visible"
               id="use31"
               overflow="visible"
               xlink:href="#SVGID_4_" /></clipPath><g
             id="g58"
             clip-path="url(#SVGID_2_)"><g
               id="g38"><polygon
                 style="fill:#ffe1b5"
                 id="polygon34"
                 points="106.398,0 87.962,90.223 69.526,0 " /><polygon
                 style="fill:#ffe1b5"
                 id="polygon36"
                 points="69.526,175.925 87.962,85.702 106.398,175.925 " /></g><g
               id="g44"><polygon
                 style="fill:#ffe1b5"
                 id="polygon40"
                 points="175.924,106.399 85.702,87.962 175.924,69.526 " /><polygon
                 style="fill:#ffe1b5"
                 id="polygon42"
                 points="0,69.526 90.223,87.962 0,106.399 " /></g><g
               id="g50"><polygon
                 style="fill:#ffe1b5"
                 id="polygon46"
                 points="163.198,38.801 86.364,89.561 137.125,12.727 " /><polygon
                 style="fill:#ffe1b5"
                 id="polygon48"
                 points="12.727,137.125 89.56,86.364 38.8,163.197 " /></g><g
               id="g56"><polygon
                 style="fill:#ffe1b5"
                 id="polygon52"
                 points="137.125,163.197 86.365,86.364 163.198,137.125 " /><polygon
                 style="fill:#ffe1b5"
                 id="polygon54"
                 points="38.8,12.727 89.561,89.561 12.727,38.8 " /></g></g></g><g
           clip-path="none"
           id="g426"
           transform="translate(8.0356234,2.1194426)"><path
             stroke-miterlimit="10"
             d="m 117.497,83.022 c -1.086,-0.214 -2.252,-0.328 -3.499,-0.328 H 60.349 c -8.189,0 -14.783,-5.367 -14.783,-14.51 0,-9.028 6.92,-15.624 14.857,-15.624 h 3.764"
             id="path68"
             inkscape:connector-curvature="0"
             style="fill:none;stroke:#78aca8;stroke-width:10.75500011;stroke-miterlimit:10" /><g
             id="g330"><rect
               x="81.117996"
               y="81.568001"
               width="17.650999"
               height="15.962"
               id="rect70"
               style="fill:#ffcf89" /><rect
               x="71.650002"
               y="98.502998"
               width="36.587002"
               height="21.989"
               id="rect72"
               style="fill:#ffcf89" /><rect
               x="84.275002"
               y="65.579002"
               width="11.337"
               height="16.313"
               id="rect74"
               style="fill:#ffcf89" /><polygon
               points="113.167,122.525 113.167,206.448 66.722,206.448 66.722,121.397 "
               id="polygon76"
               style="fill:#ffcf89" /><g
               id="g88"><rect
                 x="108.958"
                 y="158.017"
                 width="4.2080002"
                 height="23.223"
                 id="rect78"
                 style="fill:#cf9962" /><rect
                 x="101.633"
                 y="158.017"
                 width="4.2080002"
                 height="23.223"
                 id="rect80"
                 style="fill:#cf9962" /><g
                 id="g86"><rect
                   x="74.046997"
                   y="158.017"
                   width="4.2090001"
                   height="23.223"
                   id="rect82"
                   style="fill:#cf9962" /><rect
                   x="66.722"
                   y="158.017"
                   width="4.2090001"
                   height="23.223"
                   id="rect84"
                   style="fill:#cf9962" /></g></g><rect
               x="66.411003"
               y="129.29601"
               width="47.067001"
               height="3.898"
               id="rect90"
               style="fill:#cf9962" /><g
               id="g104"><rect
                 x="68.047997"
                 y="125.091"
                 width="2.6489999"
                 height="2.6459999"
                 id="rect92"
                 style="fill:#cf9962" /><rect
                 x="109.192"
                 y="125.091"
                 width="2.6489999"
                 height="2.6459999"
                 id="rect94"
                 style="fill:#cf9962" /><rect
                 x="76.776001"
                 y="125.091"
                 width="6.54"
                 height="2.6459999"
                 id="rect96"
                 style="fill:#cf9962" /><rect
                 x="83.945999"
                 y="125.091"
                 width="6.54"
                 height="2.6459999"
                 id="rect98"
                 style="fill:#cf9962" /><rect
                 x="91.115997"
                 y="125.091"
                 width="6.5419998"
                 height="2.6459999"
                 id="rect100"
                 style="fill:#cf9962" /><rect
                 x="98.288002"
                 y="125.091"
                 width="6.54"
                 height="2.6459999"
                 id="rect102"
                 style="fill:#cf9962" /></g><g
               id="g132"><rect
                 x="66.722"
                 y="135.063"
                 width="5.9229999"
                 height="21.084"
                 id="rect106"
                 style="fill:#cf9962" /><rect
                 x="107.243"
                 y="135.063"
                 width="5.9229999"
                 height="21.084"
                 id="rect108"
                 style="fill:#cf9962" /><path
                 d="m 81.06,138.805 c 0,-1.205 -0.977,-2.183 -2.183,-2.183 -1.206,0 -2.182,0.978 -2.182,2.183 v 9.761 h 4.365 z"
                 id="path110"
                 inkscape:connector-curvature="0"
                 style="fill:#cf9962" /><path
                 d="m 86.981,138.805 c 0,-1.205 -0.977,-2.183 -2.182,-2.183 -1.204,0 -2.18,0.978 -2.18,2.183 v 9.761 h 4.362 z"
                 id="path112"
                 inkscape:connector-curvature="0"
                 style="fill:#cf9962" /><path
                 d="m 104.749,138.805 c 0,-1.205 -0.977,-2.183 -2.182,-2.183 -1.205,0 -2.182,0.978 -2.182,2.183 v 9.761 h 4.364 z"
                 id="path114"
                 inkscape:connector-curvature="0"
                 style="fill:#cf9962" /><path
                 d="m 92.904,138.805 c 0,-1.205 -0.977,-2.183 -2.183,-2.183 -1.206,0 -2.182,0.978 -2.182,2.183 v 9.761 h 4.365 z"
                 id="path116"
                 inkscape:connector-curvature="0"
                 style="fill:#cf9962" /><path
                 d="m 98.826,138.805 c 0,-1.205 -0.977,-2.183 -2.182,-2.183 -1.205,0 -2.182,0.978 -2.182,2.183 v 9.761 h 4.364 z"
                 id="path118"
                 inkscape:connector-curvature="0"
                 style="fill:#cf9962" /><rect
                 x="76.695"
                 y="151.315"
                 width="3.273"
                 height="2.6500001"
                 id="rect120"
                 style="fill:#cf9962" /><rect
                 x="101.477"
                 y="151.315"
                 width="3.2720001"
                 height="2.6500001"
                 id="rect122"
                 style="fill:#cf9962" /><rect
                 x="95.280998"
                 y="151.315"
                 width="3.2709999"
                 height="2.6500001"
                 id="rect124"
                 style="fill:#cf9962" /><rect
                 x="89.085999"
                 y="151.315"
                 width="3.273"
                 height="2.6500001"
                 id="rect126"
                 style="fill:#cf9962" /><rect
                 x="82.889999"
                 y="151.315"
                 width="3.273"
                 height="2.6500001"
                 id="rect128"
                 style="fill:#cf9962" /><rect
                 x="76.695"
                 y="150.38"
                 width="28.052999"
                 height="1.403"
                 id="rect130"
                 style="fill:#cf9962" /></g><polygon
               points="115.27,118.075 113.397,123.062 66.49,123.062 64.618,118.075 "
               id="polygon134"
               style="fill:#cf9962" /><rect
               x="70.541"
               y="97.023003"
               width="38.806999"
               height="1.87"
               id="rect136"
               style="fill:#cf9962" /><g
               id="g142"><rect
                 x="71.632004"
                 y="98.426003"
                 width="6.7020001"
                 height="9.3039999"
                 id="rect138"
                 style="fill:#cf9962" /><rect
                 x="101.555"
                 y="98.426003"
                 width="6.7020001"
                 height="9.3039999"
                 id="rect140"
                 style="fill:#cf9962" /></g><g
               id="g148"><rect
                 x="71.632004"
                 y="109.707"
                 width="6.7020001"
                 height="7.5879998"
                 id="rect144"
                 style="fill:#cf9962" /><rect
                 x="101.555"
                 y="109.707"
                 width="6.7020001"
                 height="7.5879998"
                 id="rect146"
                 style="fill:#cf9962" /></g><g
               id="g154"><polygon
                 points="79.205,97.161 79.205,87.032 77.009,82.604 74.812,87.032 74.812,97.161 "
                 id="polygon150"
                 style="fill:#cf9962" /><polygon
                 points="105.076,97.161 105.076,87.032 102.88,82.604 100.683,87.032 100.683,97.161 "
                 id="polygon152"
                 style="fill:#cf9962" /></g><g
               id="g160"><rect
                 x="81.147003"
                 y="83.816002"
                 width="2.631"
                 height="12.352"
                 id="rect156"
                 style="fill:#cf9962" /><rect
                 x="96.110001"
                 y="83.816002"
                 width="2.6300001"
                 height="12.352"
                 id="rect158"
                 style="fill:#cf9962" /></g><g
               id="g168"><rect
                 x="84.957001"
                 y="83.816002"
                 width="2.8069999"
                 height="2.0250001"
                 id="rect162"
                 style="fill:#cf9962" /><rect
                 x="88.542"
                 y="83.816002"
                 width="2.8050001"
                 height="2.0250001"
                 id="rect164"
                 style="fill:#cf9962" /><rect
                 x="92.125999"
                 y="83.816002"
                 width="2.806"
                 height="2.0250001"
                 id="rect166"
                 style="fill:#cf9962" /></g><g
               id="g176"><rect
                 x="84.957001"
                 y="87.150002"
                 width="2.8069999"
                 height="2.026"
                 id="rect170"
                 style="fill:#cf9962" /><rect
                 x="88.542"
                 y="87.150002"
                 width="2.8050001"
                 height="2.026"
                 id="rect172"
                 style="fill:#cf9962" /><rect
                 x="92.125999"
                 y="87.150002"
                 width="2.806"
                 height="2.026"
                 id="rect174"
                 style="fill:#cf9962" /></g><g
               id="g184"><rect
                 x="84.957001"
                 y="90.486"
                 width="2.8069999"
                 height="2.026"
                 id="rect178"
                 style="fill:#cf9962" /><rect
                 x="88.542"
                 y="90.486"
                 width="2.8050001"
                 height="2.026"
                 id="rect180"
                 style="fill:#cf9962" /><rect
                 x="92.125999"
                 y="90.486"
                 width="2.806"
                 height="2.026"
                 id="rect182"
                 style="fill:#cf9962" /></g><g
               id="g192"><rect
                 x="84.957001"
                 y="94.141998"
                 width="2.8069999"
                 height="2.026"
                 id="rect186"
                 style="fill:#cf9962" /><rect
                 x="88.542"
                 y="94.141998"
                 width="2.8050001"
                 height="2.026"
                 id="rect188"
                 style="fill:#cf9962" /><rect
                 x="92.125999"
                 y="94.141998"
                 width="2.806"
                 height="2.026"
                 id="rect190"
                 style="fill:#cf9962" /></g><g
               id="g204"><rect
                 x="80.125"
                 y="100.141"
                 width="2.8050001"
                 height="2.806"
                 id="rect194"
                 style="fill:#cf9962" /><rect
                 x="84.333"
                 y="100.141"
                 width="2.806"
                 height="2.806"
                 id="rect196"
                 style="fill:#cf9962" /><rect
                 x="88.542"
                 y="100.141"
                 width="2.8050001"
                 height="2.806"
                 id="rect198"
                 style="fill:#cf9962" /><rect
                 x="92.749001"
                 y="100.141"
                 width="2.8050001"
                 height="2.806"
                 id="rect200"
                 style="fill:#cf9962" /><rect
                 x="96.958"
                 y="100.141"
                 width="2.8050001"
                 height="2.806"
                 id="rect202"
                 style="fill:#cf9962" /></g><g
               id="g216"><rect
                 x="80.125"
                 y="109.707"
                 width="2.8050001"
                 height="2.806"
                 id="rect206"
                 style="fill:#cf9962" /><rect
                 x="84.333"
                 y="109.707"
                 width="2.806"
                 height="2.806"
                 id="rect208"
                 style="fill:#cf9962" /><rect
                 x="88.542"
                 y="109.707"
                 width="2.8050001"
                 height="2.806"
                 id="rect210"
                 style="fill:#cf9962" /><rect
                 x="92.749001"
                 y="109.707"
                 width="2.8050001"
                 height="2.806"
                 id="rect212"
                 style="fill:#cf9962" /><rect
                 x="96.958"
                 y="109.707"
                 width="2.8050001"
                 height="2.806"
                 id="rect214"
                 style="fill:#cf9962" /></g><g
               id="g228"><rect
                 x="80.125"
                 y="104.181"
                 width="2.8050001"
                 height="2.8050001"
                 id="rect218"
                 style="fill:#cf9962" /><rect
                 x="84.333"
                 y="104.181"
                 width="2.806"
                 height="2.8050001"
                 id="rect220"
                 style="fill:#cf9962" /><rect
                 x="88.542"
                 y="104.181"
                 width="2.8050001"
                 height="2.8050001"
                 id="rect222"
                 style="fill:#cf9962" /><rect
                 x="92.749001"
                 y="104.181"
                 width="2.8050001"
                 height="2.8050001"
                 id="rect224"
                 style="fill:#cf9962" /><rect
                 x="96.958"
                 y="104.181"
                 width="2.8050001"
                 height="2.8050001"
                 id="rect226"
                 style="fill:#cf9962" /></g><g
               id="g240"><rect
                 x="80.125"
                 y="114.49"
                 width="2.8050001"
                 height="2.8050001"
                 id="rect230"
                 style="fill:#cf9962" /><rect
                 x="84.333"
                 y="114.49"
                 width="2.806"
                 height="2.8050001"
                 id="rect232"
                 style="fill:#cf9962" /><rect
                 x="88.542"
                 y="114.49"
                 width="2.8050001"
                 height="2.8050001"
                 id="rect234"
                 style="fill:#cf9962" /><rect
                 x="92.749001"
                 y="114.49"
                 width="2.8050001"
                 height="2.8050001"
                 id="rect236"
                 style="fill:#cf9962" /><rect
                 x="96.958"
                 y="114.49"
                 width="2.8050001"
                 height="2.8050001"
                 id="rect238"
                 style="fill:#cf9962" /></g><rect
               x="82.695999"
               y="78.414001"
               width="14.495"
               height="2.7520001"
               id="rect242"
               style="fill:#cf9962" /><rect
               x="83.865997"
               y="70.370003"
               width="12.156"
               height="1.17"
               id="rect244"
               style="fill:#cf9962" /><g
               id="g256"><rect
                 x="83.865997"
                 y="70.956001"
                 width="1.169"
                 height="8.4820004"
                 id="rect246"
                 style="fill:#cf9962" /><rect
                 x="86.612999"
                 y="70.956001"
                 width="1.168"
                 height="8.4820004"
                 id="rect248"
                 style="fill:#cf9962" /><rect
                 x="89.359001"
                 y="70.956001"
                 width="1.169"
                 height="8.0150003"
                 id="rect250"
                 style="fill:#cf9962" /><rect
                 x="92.107002"
                 y="70.956001"
                 width="1.168"
                 height="8.0150003"
                 id="rect252"
                 style="fill:#cf9962" /><rect
                 x="94.853996"
                 y="70.956001"
                 width="1.168"
                 height="8.0150003"
                 id="rect254"
                 style="fill:#cf9962" /></g><rect
               x="84.216003"
               y="67.566002"
               width="11.456"
               height="1.169"
               id="rect258"
               style="fill:#cf9962" /><polygon
               points="92.457,58.799 92.457,52.027 90.022,46.857 87.431,52.027 87.431,58.799 "
               id="polygon260"
               style="fill:#cf9962" /><rect
               x="89.417999"
               y="29.808001"
               width="1.052"
               height="21.160999"
               id="rect262"
               style="fill:#cf9962" /><g
               id="g274"><rect
                 x="80.612999"
                 y="157.86"
                 width="1.947"
                 height="2.7279999"
                 id="rect264"
                 style="fill:#cf9962" /><rect
                 x="84.791"
                 y="157.86"
                 width="1.948"
                 height="2.7279999"
                 id="rect266"
                 style="fill:#cf9962" /><rect
                 x="88.970001"
                 y="157.86"
                 width="1.948"
                 height="2.7279999"
                 id="rect268"
                 style="fill:#cf9962" /><rect
                 x="93.149002"
                 y="157.86"
                 width="1.948"
                 height="2.7279999"
                 id="rect270"
                 style="fill:#cf9962" /><rect
                 x="97.328003"
                 y="157.86"
                 width="1.948"
                 height="2.7279999"
                 id="rect272"
                 style="fill:#cf9962" /></g><g
               id="g286"><rect
                 x="80.612999"
                 y="162.575"
                 width="1.947"
                 height="2.727"
                 id="rect276"
                 style="fill:#cf9962" /><rect
                 x="84.791"
                 y="162.575"
                 width="1.948"
                 height="2.727"
                 id="rect278"
                 style="fill:#cf9962" /><rect
                 x="88.970001"
                 y="162.575"
                 width="1.948"
                 height="2.727"
                 id="rect280"
                 style="fill:#cf9962" /><rect
                 x="93.149002"
                 y="162.575"
                 width="1.948"
                 height="2.727"
                 id="rect282"
                 style="fill:#cf9962" /><rect
                 x="97.328003"
                 y="162.575"
                 width="1.948"
                 height="2.727"
                 id="rect284"
                 style="fill:#cf9962" /></g><g
               id="g298"><rect
                 x="80.612999"
                 y="167.213"
                 width="1.947"
                 height="3.6630001"
                 id="rect288"
                 style="fill:#cf9962" /><rect
                 x="84.791"
                 y="167.213"
                 width="1.948"
                 height="3.6630001"
                 id="rect290"
                 style="fill:#cf9962" /><rect
                 x="88.970001"
                 y="167.213"
                 width="1.948"
                 height="3.6630001"
                 id="rect292"
                 style="fill:#cf9962" /><rect
                 x="93.149002"
                 y="167.213"
                 width="1.948"
                 height="3.6630001"
                 id="rect294"
                 style="fill:#cf9962" /><rect
                 x="97.328003"
                 y="167.213"
                 width="1.948"
                 height="3.6630001"
                 id="rect296"
                 style="fill:#cf9962" /></g><g
               id="g310"><rect
                 x="80.612999"
                 y="172.278"
                 width="1.947"
                 height="3.6619999"
                 id="rect300"
                 style="fill:#cf9962" /><rect
                 x="84.791"
                 y="172.278"
                 width="1.948"
                 height="3.6619999"
                 id="rect302"
                 style="fill:#cf9962" /><rect
                 x="88.970001"
                 y="172.278"
                 width="1.948"
                 height="3.6619999"
                 id="rect304"
                 style="fill:#cf9962" /><rect
                 x="93.149002"
                 y="172.278"
                 width="1.948"
                 height="3.6619999"
                 id="rect306"
                 style="fill:#cf9962" /><rect
                 x="97.328003"
                 y="172.278"
                 width="1.948"
                 height="3.6619999"
                 id="rect308"
                 style="fill:#cf9962" /></g><g
               id="g322"><rect
                 x="80.612999"
                 y="177.733"
                 width="1.947"
                 height="3.6600001"
                 id="rect312"
                 style="fill:#cf9962" /><rect
                 x="84.791"
                 y="177.733"
                 width="1.948"
                 height="3.6600001"
                 id="rect314"
                 style="fill:#cf9962" /><rect
                 x="88.970001"
                 y="177.733"
                 width="1.948"
                 height="3.6600001"
                 id="rect316"
                 style="fill:#cf9962" /><rect
                 x="93.149002"
                 y="177.733"
                 width="1.948"
                 height="3.6600001"
                 id="rect318"
                 style="fill:#cf9962" /><rect
                 x="97.328003"
                 y="177.733"
                 width="1.948"
                 height="3.6600001"
                 id="rect320"
                 style="fill:#cf9962" /></g><polygon
               points="95.612,65.579 84.275,65.579 87.469,57.396 92.394,57.396 "
               id="polygon324"
               style="fill:#cf9962" /><path
               d="m 91.405,63.417 c 0,-0.808 -0.654,-1.461 -1.461,-1.461 -0.806,0 -1.46,0.653 -1.46,1.461 v 3.215 h 2.922 v -3.215 z"
               id="path326"
               inkscape:connector-curvature="0"
               style="fill:#ffcf89" /><rect
               x="80.086998"
               y="80.678001"
               width="19.715"
               height="2.082"
               id="rect328"
               style="fill:#cf9962" /></g><path
             stroke-miterlimit="10"
             d="m 111.343,175.249 c 0.785,0 1.462,0.04 2.203,0 5.459,-0.293 15.236,-3.588 15.236,-15.596 0,-7.195 -4.811,-14.529 -14.784,-14.529 H 60.349 c -8.189,0 -14.783,-7.518 -14.783,-16.661 0,-9.028 6.92,-15.624 14.857,-15.624 h 11.831"
             id="path332"
             inkscape:connector-curvature="0"
             style="fill:none;stroke:#78aca8;stroke-width:10.75500011;stroke-miterlimit:10" /><rect
             x="71.650002"
             y="117.251"
             width="36.587002"
             height="3.2409999"
             id="rect334"
             style="fill:#fcb319" /><polygon
             points="115.27,118.075 115.252,123.062 64.61,123.062 64.618,118.075 "
             id="polygon336"
             style="fill:#cf9962" /><g
             id="g342"><rect
               x="71.632004"
               y="109.707"
               width="6.7020001"
               height="7.5879998"
               id="rect338"
               style="fill:#012a29" /><rect
               x="101.555"
               y="109.707"
               width="6.7020001"
               height="7.5879998"
               id="rect340"
               style="fill:#012a29" /></g><path
             stroke-miterlimit="10"
             d="m 64.136,112.828 c 0.785,0 48.669,0.04 49.41,0 5.459,-0.294 15.236,-3.597 15.236,-15.605 0,-7.194 -4.811,-14.528 -14.784,-14.528 h -2.543"
             id="path344"
             inkscape:connector-curvature="0"
             style="fill:none;stroke:#78aca8;stroke-width:10.75500011;stroke-miterlimit:10" /><rect
             x="108.958"
             y="158.017"
             width="4.2080002"
             height="23.223"
             id="rect346"
             style="fill:#cf9962" /><rect
             x="66.722"
             y="158.017"
             width="4.2090001"
             height="23.223"
             id="rect348"
             style="fill:#cf9962" /><g
             id="g376"><polygon
               points="110.481,32.207 90.338,29.879 90.338,42.298 110.481,39.97 105.863,36.05 "
               id="polygon350"
               style="fill:#012a29" /><polygon
               points="93.444,31.78 100.119,35.312 106.749,35.312 108.859,33.557 "
               id="polygon352"
               style="fill:#fbf7ee" /><polygon
               points="108.847,38.582 106.777,36.825 100.119,36.825 93.444,40.356 "
               id="polygon354"
               style="fill:#fbf7ee" /><polygon
               points="102.719,36.088 90.338,42.298 90.338,29.879 "
               id="polygon356"
               style="fill:#012a29" /><circle
               cx="94.141998"
               cy="36.049999"
               r="2.329"
               id="circle358"
               style="fill:#ffffff" /><circle
               cx="94.141998"
               cy="36.049999"
               r="1.552"
               id="circle360"
               style="fill:#012a29" /><circle
               cx="93.289001"
               cy="32.362"
               r="0.42699999"
               id="circle362"
               style="fill:#fbf7ee" /><circle
               cx="97.867996"
               cy="35.118"
               r="0.42699999"
               id="circle364"
               style="fill:#fbf7ee" /><circle
               cx="97.867996"
               cy="37.252998"
               r="0.42699999"
               id="circle366"
               style="fill:#fbf7ee" /><circle
               cx="99.459"
               cy="36.126999"
               r="0.42699999"
               id="circle368"
               style="fill:#fbf7ee" /><circle
               cx="91.775002"
               cy="33.139"
               r="0.42699999"
               id="circle370"
               style="fill:#fbf7ee" /><circle
               cx="93.289001"
               cy="39.931"
               r="0.42699999"
               id="circle372"
               style="fill:#fbf7ee" /><circle
               cx="91.775002"
               cy="39.153999"
               r="0.42699999"
               id="circle374"
               style="fill:#fbf7ee" /></g><path
             d="m 62.087,56.525 c 0,0 3.064,6.445 7.446,6.191 4.382,-0.253 7.407,-2.581 12.191,-3.345 3.598,-0.574 3.315,-4.347 3.315,-4.347 l -0.122,-0.105 c 0,0 1.026,-3.641 -2.387,-4.917 C 77.993,48.306 75.488,45.424 71.244,44.307 67,43.189 62.719,48.9 62.719,48.9"
             id="path378"
             inkscape:connector-curvature="0"
             style="fill:#78aca8" /><g
             id="g384"><ellipse
               transform="matrix(-0.2939,0.9558,-0.9558,-0.2939,139.0944,-6.2769)"
               cx="71.865997"
               cy="48.238998"
               rx="0.97399998"
               ry="2.1459999"
               id="ellipse380"
               style="fill:#012a29" /><ellipse
               transform="matrix(-0.2939,-0.9558,0.9558,-0.2939,36.9274,144.5749)"
               cx="71.865997"
               cy="58.646999"
               rx="0.97399998"
               ry="2.1459999"
               id="ellipse382"
               style="fill:#012a29" /></g><g
             id="g388"><path
               stroke-miterlimit="10"
               d="M 95.097,205.394 H 60.349 c -8.189,0 -14.783,-5.365 -14.783,-14.51 0,-9.027 6.92,-15.623 14.857,-15.623 h 6.453"
               id="path386"
               inkscape:connector-curvature="0"
               style="fill:none;stroke:#78aca8;stroke-width:10.75500011;stroke-miterlimit:10" /></g><g
             id="g424"><path
               stroke-miterlimit="10"
               d="m 109.769,111.07 c -1.198,0 -2.168,0.815 -2.168,1.821 0,1.004 0.97,1.818 2.168,1.818"
               id="path390"
               inkscape:connector-curvature="0"
               style="fill:none;stroke:#97bcb9;stroke-width:0.74339998;stroke-linecap:round;stroke-linejoin:round;stroke-miterlimit:10" /><path
               stroke-miterlimit="10"
               d="m 111.937,112.892 c -1.198,0 -2.168,0.813 -2.168,1.818 0,1.005 0.971,1.821 2.168,1.821"
               id="path392"
               inkscape:connector-curvature="0"
               style="fill:none;stroke:#97bcb9;stroke-width:0.74339998;stroke-linecap:round;stroke-linejoin:round;stroke-miterlimit:10" /><path
               stroke-miterlimit="10"
               d="m 78.505,112.892 c -1.198,0 -2.169,0.813 -2.169,1.818 0,1.005 0.971,1.821 2.169,1.821"
               id="path394"
               inkscape:connector-curvature="0"
               style="fill:none;stroke:#97bcb9;stroke-width:0.74339998;stroke-linecap:round;stroke-linejoin:round;stroke-miterlimit:10" /><path
               stroke-miterlimit="10"
               d="m 65.887,84.086 c 1.198,0 2.168,-0.814 2.168,-1.819 0,-1.005 -0.971,-1.82 -2.168,-1.82"
               id="path396"
               inkscape:connector-curvature="0"
               style="fill:none;stroke:#97bcb9;stroke-width:0.74339998;stroke-linecap:round;stroke-linejoin:round;stroke-miterlimit:10" /><path
               stroke-miterlimit="10"
               d="m 45.367,69.855 c 0,1.196 0.815,2.169 1.82,2.169 1.004,0 1.82,-0.973 1.82,-2.169"
               id="path398"
               inkscape:connector-curvature="0"
               style="fill:none;stroke:#97bcb9;stroke-width:0.74339998;stroke-linecap:round;stroke-linejoin:round;stroke-miterlimit:10" /><path
               stroke-miterlimit="10"
               d="m 123.183,89.859 c 0.847,0.847 2.11,0.958 2.82,0.246 0.711,-0.711 0.6,-1.974 -0.246,-2.82"
               id="path400"
               inkscape:connector-curvature="0"
               style="fill:none;stroke:#97bcb9;stroke-width:0.74339998;stroke-linecap:round;stroke-linejoin:round;stroke-miterlimit:10" /><path
               stroke-miterlimit="10"
               d="m 63.718,85.922 c 1.198,0 2.169,-0.815 2.169,-1.82 0,-1.005 -0.971,-1.819 -2.169,-1.819"
               id="path402"
               inkscape:connector-curvature="0"
               style="fill:none;stroke:#97bcb9;stroke-width:0.74339998;stroke-linecap:round;stroke-linejoin:round;stroke-miterlimit:10" /><g
               id="g408"><path
                 stroke-miterlimit="10"
                 d="m 46.892,130.792 c 0,1.197 0.815,2.168 1.82,2.168 1.004,0 1.82,-0.971 1.82,-2.168"
                 id="path404"
                 inkscape:connector-curvature="0"
                 style="fill:none;stroke:#97bcb9;stroke-width:0.74339998;stroke-linecap:round;stroke-linejoin:round;stroke-miterlimit:10" /><path
                 stroke-miterlimit="10"
                 d="m 45.056,128.633 c 0,1.199 0.815,2.169 1.82,2.169 1.005,0 1.82,-0.97 1.82,-2.169"
                 id="path406"
                 inkscape:connector-curvature="0"
                 style="fill:none;stroke:#97bcb9;stroke-width:0.74339998;stroke-linecap:round;stroke-linejoin:round;stroke-miterlimit:10" /></g><g
               id="g414"><path
                 stroke-miterlimit="10"
                 d="m 130.373,159.763 c 0,1.197 -0.815,2.168 -1.82,2.168 -1.005,-0.001 -1.819,-0.971 -1.82,-2.168"
                 id="path410"
                 inkscape:connector-curvature="0"
                 style="fill:none;stroke:#97bcb9;stroke-width:0.74339998;stroke-linecap:round;stroke-linejoin:round;stroke-miterlimit:10" /><path
                 stroke-miterlimit="10"
                 d="m 132.208,157.604 c 0,1.197 -0.816,2.168 -1.82,2.168 -1.005,0 -1.82,-0.971 -1.82,-2.168"
                 id="path412"
                 inkscape:connector-curvature="0"
                 style="fill:none;stroke:#97bcb9;stroke-width:0.74339998;stroke-linecap:round;stroke-linejoin:round;stroke-miterlimit:10" /></g><g
               id="g422"><path
                 stroke-miterlimit="10"
                 d="m 94.306,146.754 c 1.198,0 2.169,-0.816 2.169,-1.821 0,-1.004 -0.971,-1.819 -2.169,-1.819"
                 id="path416"
                 inkscape:connector-curvature="0"
                 style="fill:none;stroke:#97bcb9;stroke-width:0.74339998;stroke-linecap:round;stroke-linejoin:round;stroke-miterlimit:10" /><path
                 stroke-miterlimit="10"
                 d="m 98.633,146.754 c 1.197,0 2.168,-0.816 2.168,-1.821 0,-1.004 -0.971,-1.819 -2.168,-1.819"
                 id="path418"
                 inkscape:connector-curvature="0"
                 style="fill:none;stroke:#97bcb9;stroke-width:0.74339998;stroke-linecap:round;stroke-linejoin:round;stroke-miterlimit:10" /><path
                 stroke-miterlimit="10"
                 d="m 96.475,148.589 c 1.197,0 2.168,-0.814 2.168,-1.819 0,-1.005 -0.971,-1.82 -2.168,-1.82"
                 id="path420"
                 inkscape:connector-curvature="0"
                 style="fill:none;stroke:#97bcb9;stroke-width:0.74339998;stroke-linecap:round;stroke-linejoin:round;stroke-miterlimit:10" /></g></g></g><path
           sodipodi:type="star"
           style="opacity:1;fill:#0e1616;fill-opacity:0;stroke:#000000;stroke-width:3.21584836;stroke-miterlimit:10;stroke-dasharray:none;stroke-opacity:1"
           id="path3103"
           sodipodi:sides="6"
           sodipodi:cx="267.92215"
           sodipodi:cy="85.93512"
           sodipodi:r1="68.610634"
           sodipodi:r2="59.418552"
           sodipodi:arg1="0"
           sodipodi:arg2="0.52359878"
           inkscape:flatsided="true"
           inkscape:rounded="0"
           inkscape:randomized="0"
           d="m 336.53278,85.93512 -34.30531,59.41855 -68.61064,0 -34.30531,-59.41855 34.30531,-59.418552 68.61064,0 z"
           transform="matrix(1.0771968,-0.6219199,0.6219199,1.0771968,-242.19707,163.81979)" /><use
           id="use3968"
           xlink:href="#path3103"
           y="0"
           x="0" /><path
           transform="matrix(1.0771968,-0.6219199,0.6219199,1.0771968,-242.19707,163.81979)"
           d="m 336.53278,85.93512 -34.30531,59.41855 -68.61064,0 -34.30531,-59.41855 34.30531,-59.418552 68.61064,0 z"
           inkscape:randomized="0"
           inkscape:rounded="0"
           inkscape:flatsided="true"
           sodipodi:arg2="0.52359878"
           sodipodi:arg1="0"
           sodipodi:r2="59.418552"
           sodipodi:r1="68.610634"
           sodipodi:cy="85.93512"
           sodipodi:cx="267.92215"
           sodipodi:sides="6"
           id="use3970"
           style="opacity:1;fill:#0e1616;fill-opacity:0;stroke:#000000;stroke-width:8.0396209;stroke-miterlimit:10;stroke-dasharray:none;stroke-opacity:1"
           sodipodi:type="star" /></g></g></g></svg>